<?xml version="1.0" encoding="UTF-8"?>
<svg version="1.1" viewBox="0 0 2048 1420" width="225" height="100" xmlns="http://www.w3.org/2000/svg">
<path transform="translate(1185,393)" d="m0 0h362l11 3 10 5 8 7 7 10 4 8 3 13v311l-3 11-7 12-7 6-10 5-7 2-19 1h-217l-13-1-12-4-9-7-7-8-4-9-2-10v-236l3-14 6-11 6-7 11-7 9-3 6-1h140l13 2 9 4 9 7 7 8 5 11 2 9v147l-4 13-6 10-8 8-14 7-13 2h-16l-32-1-10-3-9-6-6-5-7-10-4-12-1-5v-94l3-9 5-6 10-5h12l7 3 5 4 5 9 1 4 1 74 3 5 8 4h8l7-4 3-4 1-3v-109l-5-2-10-3-21-2h-45l-18 2-13 4-9 5-1 2v194l6 7 5 1h189l8-2 4-5 2-4v-273l-4-4h-340l-24 3-10 2h-4v2l5 2 21 21 13 18 10 18 8 18 6 19 5 23 2 20v25l-3 23-6 25-7 19-8 16-8 14-12 16-10 11-13 13-8 7-14 10-20 12-21 9-22 7-26 5-12 1h-27l-19-2-22-5-24-8-21-10-11-7-13-10-12-11-10-11-10-14-8-15-7-19-4-17-1-6v-30l4-21 7-20 10-19 8-11 7-9 18-18 14-10 17-10 22-9 19-5 17-3 10-14 9-10 11-12 10-9-23 1-27 4-23 6-22 8-20 9-20 12-14 10-14 12-10 10-11 14-8 11-11 16-11 15-8 12-11 15-8 12-24 34-9 13-12 17-11 16-13 19-13 18-12 17-11 13-10 7-10 4-5 1h-12l-13-4-9-6-5-5-8-10-12-19-14-25-28-49-13-23-16-28-13-23-14-24-16-29-14-24-10-18-14-24-8-16-2-6-1-10 2-12 7-14 9-9 10-5 8-2h287l12 3 10 6 7 7 6 12 2 8v14l-4 13-7 12-29 43-28 42-11 16-10 15-13 19-8 9-9 6-16 4h-7l-12-3-11-6-7-7-42-66-8-13-4-13v-8l3-11 6-9 8-7 9-4 6-1 38-2h16l10 4 7 8 3 8v11l-3 8-6 7-7 4-12 2-15 2 10 15 12 19 2 4 11-16 10-15 13-19 17-25 21-31 5-8h-233l6 11 10 17 51 87 11 19 13 22 14 24 10 17 14 24 17 29 6 10 5-5 7-10 11-16 13-18 14-20 12-17 13-18 11-16 10-14 13-18 8-12 9-12 11-14 8-10 14-17 13-15 11-11 10-8 15-11 18-11 21-11 27-11 29-8 24-5 27-3 18-1h20l26 2 23 4 10 1 14-6 19-6 14-3 14-2zm-85 81-14 8-13 11-7 7-9 11v3l11 4 10 6 13 12 8 11 8 15 5 15 3 16v23l-2 13-4 15-10 21-11 14-12 9-12 6-11 3-6 1h-14l-16-4-14-7-12-9-9-11-9-14-6-14-5-21-1-7v-19l3-17 5-16-1-2-16 7-14 10-14 14-12 17-8 16-4 12-2 15v11l3 16 6 15 9 14 11 12 8 7 14 9 19 9 19 6 18 3 15 1h11l20-2 21-5 16-6 16-8 15-10 13-11 8-7 8-10 8-11 9-16 6-14 5-17 2-12 1-11v-16l-2-18-5-19-6-15-9-17-10-14-14-15-10-9-10-7-11-7zm-73 82-6 12-5 14-2 11v16l3 12 7 14 9 9 10 4 8-1 8-5 4-5 5-10 2-7 1-8v-10l-2-12-5-12-8-11-9-7-11-4z" fill="#A40C13"/>
<path transform="translate(838,819)" d="m0 0h64l6 4 21 21 7 8 59 59 7 8 39 39 1-135 4-4h67l5 5v227l-3 3-3 1h-64l-8-7-20-20-7-8-76-76v-2h-2l-7-8-18-18-1 134-4 5h-67l-5-4v-228z" fill="#A40C13"/>
<path transform="translate(1185,393)" d="m0 0h362l11 3 10 5 8 7 7 10 4 8 3 13v311l-3 11-7 12-7 6-10 5-7 2-19 1h-217l-13-1-12-4-9-7-7-8-4-9-2-10v-236l3-14 6-11 6-7 11-7 9-3 6-1h140l13 2 9 4 9 7 7 8 5 11 2 9v147l-4 13-6 10-8 8-14 7-13 2h-16l-32-1-10-3-9-6-6-5-7-10-4-12-1-5v-94l3-9 5-6 10-5h12l7 3 5 4 5 9 1 4 1 74 3 5 8 4h8l7-4 3-4 1-3v-109l-5-2-10-3-21-2h-45l-18 2-13 4-9 5-1 2v194l6 7 5 1h189l8-2 4-5 2-4v-273l-4-4h-340l-24 3-10 2h-4v2l5 2 21 21 13 18 10 18 8 18 6 19 5 23 2 20v25l-3 23-6 25-7 19-8 16-8 14-12 16-10 11-13 13-8 7-14 10-20 12-21 9-22 7-26 5-12 1h-27l-19-2-22-5-24-8-21-10-11-7-13-10-12-11-10-11-10-14-8-15-7-19-4-17-1-6v-30l4-21 7-20 10-19 8-11 7-9 18-18 14-10 17-10 22-9 19-5 17-3 10-14 9-10 11-12 10-9-23 1-27 4-23 6-22 8-20 9-20 12-14 10-14 12-10 10-11 14-8 11-11 16-11 15-8 12-11 15-8 12-24 34-9 13-12 17-11 16-13 19-13 18-12 17-11 13-10 7-10 4-5 1h-12l-13-4-9-6-5-5-8-10-12-19-14-25-28-49-13-23-16-28-13-23-14-24-16-29-14-24-10-18-14-24-8-16-2-6-1-10 2-12 7-14 9-9 10-5 8-2h287l12 3 10 6 7 7 6 12 2 8v14l-4 13-7 12-29 43-28 42-11 16-10 15-13 19-8 9-9 6-16 4h-7l-12-3-11-6-7-7-42-66-8-13-4-13v-8l3-11 6-9 8-7 9-4 6-1 38-2h16l10 4 7 8 3 8v11l-3 8-6 7-7 4-12 2-15 2 10 15 12 19 2 4 11-16 10-15 13-19 17-25 21-31 5-8h-233l6 11 10 17 51 87 11 19 13 22 14 24 10 17 14 24 17 29 6 10 5-5 7-10 11-16 13-18 14-20 12-17 13-18 11-16 10-14 13-18 8-12 9-12 11-14 8-10 14-17 13-15 11-11 10-8 15-11 18-11 21-11 27-11 29-8 24-5 27-3 18-1h20l26 2 23 4 10 1 14-6 19-6 14-3 14-2zm-4 5-21 2-20 4-28 10-3 2h-8l-19-4-17-2-18-1h-14l-23 1-27 3-32 7-30 10-25 11-18 10-18 12-14 11-12 11-7 7-9 11-12 14-10 13-14 18-14 20-12 17-10 14-13 18-13 19-13 18-14 20-10 14-24 34-2 3h-2l-11-20-13-22-14-24-17-29-15-26-26-44-17-29-13-22-15-26-9-15-10-17 83 1h167l-2 5-10 14-28 42-12 17-10 15-13 19-9 13h-2l-11-18-15-23-4-6v-3l30-3 8-4 5-6 2-6v-10l-4-8-6-5-5-2h-17l-39 2-9 3-6 4v2h-2l-6 10-2 9v7l3 10 11 18 11 17 12 19 15 23 6 7 9 6 11 3h10l13-4 9-7 7-9 16-24 17-25 10-15 25-37 24-36 6-12 1-5v-14l-4-12-6-8-7-6-9-4-6-1h-288l-11 4-8 6-7 11-3 9v17l4 10 12 21 13 22 6 11 14 25 13 23 14 24 10 18 13 23 28 49 14 25 12 21 15 26 12 16 7 7 12 6 4 1h14l11-4 8-6 9-9 13-18 14-20 48-69 12-17 14-20 11-16 13-18 9-13 12-17 10-14 11-13 11-11 11-9 15-11 17-10 23-11 16-6 23-7 28-5 43-3-7 8-8 7-11 11-7 8-9 11-8 11-23 4-19 6-15 6-17 10-11 8-12 10v2h-2l-7 8-8 10-10 16-7 15-5 15-4 20-1 17 2 20 5 19 6 15 9 16 9 12 11 12 11 10 14 10 16 9 15 7 21 7 19 4 18 2h33l26-4 21-6 16-6 16-8 14-8 16-12 13-12 13-13 10-13 11-17 12-25 7-22 5-27 1-11v-25l-2-20-4-19-8-24-10-21-10-16-13-16-8-9-11-9-7-6 3-2 19-5 13-2 16-1h334l5 2 4 5 2 8v260l-2 11-6 8-5 3h-201l-6-3-4-6-1-3v-194l3-6 16-8 17-3 12-1h39l24 2 12 3 5 3 3 4 1 3v102l-2 10-6 7-8 3h-8l-10-4-4-5-2-4-1-14v-61l-3-8-6-5-4-2h-12l-8 5-4 7-1 5v90l2 11 5 10 7 8 11 7 6 2 11 1h40l12-2 10-6 8-8 6-11 2-10v-144l-2-10-6-11-9-9-10-5-14-2h-139l-9 2-10 5-5 4-7 10-4 11-1 6v237l3 11 6 9 9 8 10 4 11 1h231l13-2 10-6 8-8 4-8 2-12v-307l-3-12-6-11-8-9-12-7-9-2z" fill="#FEFEFE"/>
<path transform="translate(589,819)" d="m0 0h189l5 5v42l-2 5-73 1h-40l-7-1v31h118l4 3v43l-1 4-2 1-116 1-3-1v49h115l6 1 1 3v44l-4 5h-190l-3-3-1-11v-215l2-5z" fill="#A30C13"/>
<path transform="translate(1390,819)" d="m0 0h189l4 4v44l-3 4-40 1h-72l-7-1v31h119l3 5v42l-3 4-111 1-8-1v49h114l6 2 2 3v44l-4 4h-189l-4-4-1-19v-205l2-5z" fill="#A30C13"/>
<path transform="translate(231,819)" d="m0 0h69l5 6 13 25 10 18 16 30 12 22 15 28 13 24 13-23 18-34 9-16 13-24 12-22 13-24 6-9 2-1h68l5 4v5l-9 16-15 28-15 27-14 26-13 23-11 21-10 18-13 24-13 23-9 17-5 4h-66l-4-5-12-22-15-28-12-22-17-32-13-24-16-30-12-22-17-32-6-11 1-5z" fill="#A40C13"/>
<path transform="translate(1157,819)" d="m0 0h189l4 2 1 2v45l-5 4h-57v179l-4 4h-68l-4-3-1-3v-177h-56l-4-4-1-4v-19l1-22z" fill="#A40C13"/>
<path transform="translate(1637,819)" d="m0 0h68l3 2 1 3v180h91l3 3 1 10v31l-2 6-2 1h-163l-3-2-1-3v-226z" fill="#A30C13"/>
<path transform="translate(620,226)" d="m0 0h28l12 4 9 6 9 9 7 13 3 14-1 21-4 22-6 21-8 21-10 19-8 10-8 6-9 3h-15l-16-8-13-10-10-9-12-11-7-7-9-11-10-15-7-15-5-16-1-6v-8l3-14 6-12 7-9 14-9 16-4 33-4zm8 50-40 8 20 30 9 14 2 2 10-48 1-6z" fill="#A40C13"/>
<path transform="translate(1e3 235)" d="m0 0h21l16 4 15 8 13 11 10 13 7 14 4 15 1 5v21l-4 17-6 14-9 13-11 11-13 8-13 5-17 3h-8l-20-4-16-8-9-7-10-10-8-13-6-14-3-13-1-13 2-17 4-13 8-16 11-13 9-8 14-8 13-4zm6 50-9 3-8 6-6 8-2 6-1 10 2 9 5 8 7 7 9 4h13l10-4 5-4 6-9 2-5v-16l-6-12-8-7-11-4z" fill="#A30C13"/>
<path transform="translate(1408,226)" d="m0 0h13l18 6 38 15 16 7 8 6 6 9 3 7 1 5v9l-4 13-15 35-12 27-5 9-5 5-6 5-11 4h-14l-30-10-38-14-8-5-5-4-6-9-4-13v-9l3-12 18-43 10-23 8-10 9-6 8-3zm13 48-4 10-13 26-6 13 15 7 25 12 4-5 11-23 9-19v-3l-29-13z" fill="#A40C13"/>
<path transform="translate(1363,1078)" d="m0 0h9l3 1 1 2v6l-7 8-1 1 13 3 2 3 4-2v-2l13-1 16 1 8 3 7 8 2 5v13l-4 8-8 6-4 2 12 16 5 7v5l-5 3h-9l-6-5-12-17-1-1v13l-1 7-4 3h-9l-4-4v-46l-1-13-2 3h-27v11h26l2 2 1 10-3 4-4 1h-22v15h25l3 2 1 3v8l-3 4h-39l-3-4-1-3v-30h-2l-1 4-8 1h-14v27l-2 4-3 1h-8l-4-3v-3h-2l-1 5-2 1h-38l-2-4-5 4h-33l-4-4v-69l4-3 5-1 5 2 2 2 1 4v52h19l4 1v-56l3-4 8-1h22l11 1 2 4 7-5h19l14 1 2 3 3-1 1-2 9-1 6-11 4-5zm-70 26m0 3-2 6-27 1v11l26 1 3 8h1v-27zm42 1-2 5-22 1v11l22 1 2 5h1v-23zm65 6v12l1 1 12-1 3-3v-6l-2-2zm-108 22-1 3-8 2-19 1v15l27 1 2 7h1v-29z" fill="#FEFEFE"/>
<path transform="translate(882,1097)" d="m0 0 7 1 4 4 1 61 24-54 4-8 5-4 5 2 5 8 18 41 7 16v6l-4 4h-8l-5-5-8-16h-19l-7 15-2 4-4 2h-9l-6-1-5 1-8-7-11-14-12-14-3-4-1 34-4 5h-8l-4-4-5 4h-9l-4-4-7-16-1-1-20-1-3 9-5 10-4 3h-44l-4-5v-67l4-4h9l4 4v55h19l3 1 7-16 13-29 6-12 4-3h5l5 8 10 22 11 25 4 9 1-60 4-4 6 1 10 10 10 13 11 13 2 2v-34l4-5zm45 33-2 5 5 1-1-6zm-129 1-2 5 5-1-1-4z" fill="#FEFEFE"/>
<path transform="translate(458,1097)" d="m0 0h29l8 1 3 4 5-4h5l11 12 9 11 11 13 2 3 1-36 4-3h9l3 3 1 42v24l-3 6-5 1-5-3-9-11-11-13-10-13v34l-3 5-2 1h-8l-5-5-2 4-2 1h-39l-3-4-1-46 1-18h-2l-1 5-17 42-8 18-3 3-7-1-5-10-22-55-1-7 3-3h11l3 3 10 24 5 13 1 1 6-16 9-21 3-4h11l3 3h2l2-3zm39 10v6l-29 1v11l27 1 2 6 2-1v-21zm0 29-3 4-6 1-19 1v15l25 1 3 6 2-2v-25z" fill="#FEFEFE"/>
<path transform="translate(838,819)" d="m0 0h64l6 4 21 21 7 8 59 59 7 8 39 39 1-135 4-4h67l5 5v227l-3 3-3 1h-64l-8-7-20-20-7-8-76-76v-2h-2l-7-8-18-18-1 134-4 5h-67l-5-4v-228zm0 5v225l1 1h65l1-146 6 7 8 7 5 6h2l1 3h2l2 4 78 78 7 8 33 33h63l1-1v-225h-66l-1 146-54-54-7-8-56-56-7-8-19-19-2-1z" fill="#FEFEFE"/>
<path transform="translate(589,819)" d="m0 0h189l5 5v42l-2 5-73 1h-40l-7-1v31h118l4 3v43l-1 4-2 1-116 1-3-1v49h115l6 1 1 3v44l-4 5h-190l-3-3-1-11v-215l2-5zm2 5v226h187v-42l-1-1h-121v-56l-1-2h122l1-1v-41h-122v-40h121l1-1v-42z" fill="#FEFEFE"/>
<path transform="translate(1390,819)" d="m0 0h189l4 4v44l-3 4-40 1h-72l-7-1v31h119l3 5v42l-3 4-111 1-8-1v49h114l6 2 2 3v44l-4 4h-189l-4-4-1-19v-205l2-5zm1 5v226h187v-43h-122v-58h121l1-1v-41h-122l1-40h119l2-1v-42z" fill="#FEFEFE"/>
<path transform="translate(1098,470)" d="m0 0h6l16 10 10 8 12 11 10 11 9 13 9 16 8 21 4 18 2 18v13l-2 19-5 21-6 15-9 17-10 14-9 10-12 12-13 10-18 11-18 8-20 6-18 3h-39l-17-3-18-5-21-9-14-9-10-8-10-10-11-16-7-17-3-12-1-17 2-16 6-18 10-18 10-13 8-9 11-9 13-8 15-6 9-2-1 5-7 19-3 16v21l3 17 6 18 8 14 8 10 9 9 11 7 12 5 9 2h16l14-3 13-7 10-9 7-8 8-14 6-15 4-20v-25l-4-19-5-12-8-15-12-13-9-7-12-6-11-4 5-9 9-11 11-11 14-10zm2 4-14 8-13 11-7 7-9 11v3l11 4 10 6 13 12 8 11 8 15 5 15 3 16v23l-2 13-4 15-10 21-11 14-12 9-12 6-11 3-6 1h-14l-16-4-14-7-12-9-9-11-9-14-6-14-5-21-1-7v-19l3-17 5-16-1-2-16 7-14 10-14 14-12 17-8 16-4 12-2 15v11l3 16 6 15 9 14 11 12 8 7 14 9 19 9 19 6 18 3 15 1h11l20-2 21-5 16-6 16-8 15-10 13-11 8-7 8-10 8-11 9-16 6-14 5-17 2-12 1-11v-16l-2-18-5-19-6-15-9-17-10-14-14-15-10-9-10-7-11-7z" fill="#FEFEFE"/>
<path transform="translate(231,819)" d="m0 0h69l5 6 13 25 10 18 16 30 12 22 15 28 13 24 13-23 18-34 9-16 13-24 12-22 13-24 6-9 2-1h68l5 4v5l-9 16-15 28-15 27-14 26-13 23-11 21-10 18-13 24-13 23-9 17-5 4h-66l-4-5-12-22-15-28-12-22-17-32-13-24-16-30-12-22-17-32-6-11 1-5zm0 5 2 5 14 27 12 22 15 28 13 24 16 30 12 22 18 34 12 22 6 12h64l5-8 14-26 13-23 16-30 13-23 17-32 13-23 15-28 12-22 5-8v-3h-67l-9 16-24 44-13 24-16 29-15 28-9 16h-2l-13-25-12-22-30-56-12-22-16-30-2-2z" fill="#FEFEFE"/>
<path transform="translate(585,1097)" d="m0 0h19l2 1v2l10-3h25l7 1 3 4-1 6-14 32-8 17h18l4 5v7l-4 5h-36l-3-1-2 1h-37l-5-5v-67l3-3 2-1zm21 15-1 3-2-1h-22l-1 1v9l1 1 27 1 1 9-3 5-3 1h-22l-1 1v15l26 1h3l8-16 12-28-17-1z" fill="#FEFEFE"/>
<path transform="translate(1135,1097)" d="m0 0h13l9 1 5 2 2-2 7-1h25l9 2 1 8-1 6-2 1h-26v11h25l3 1v13l-3 2-6 1h-19v15h25l3 2v13l-3 2h-38l-4-3v-59l-3 2h-9v53l-2 6-3 1h-8l-4-3-1-4v-50l1-3-6 1-6-2-3-6 1-6 3-3z" fill="#FEFEFE"/>
<path transform="translate(1157,819)" d="m0 0h189l4 2 1 2v45l-5 4h-57v179l-4 4h-68l-4-3-1-3v-177h-56l-4-4-1-4v-19l1-22zm0 5v43h60v182l1 1h66v-183h62v-43z" fill="#FEFEFE"/>
<path transform="translate(1637,819)" d="m0 0h68l3 2 1 3v180h91l3 3 1 10v31l-2 6-2 1h-163l-3-2-1-3v-226zm2 5-1 2v223l1 1h159l1-1v-40l-6-1h-89v-184z" fill="#FEFEFE"/>
<path transform="translate(680,1096)" d="m0 0h15l11 4 8 6 6 7 4 8 2 9v11l-3 12-6 9-7 7-10 5-9 2h-8l-9-2-9-5-6-5-6-10-3-7-1-5v-11l4-13 6-10 10-8zm2 17-7 4-6 7-3 10 1 9 4 8 7 6 6 2h7l8-3 5-4 4-8 1-4v-9l-3-8-8-8-5-2z" fill="#C90F1B"/>
<path transform="translate(1555,1096)" d="m0 0h15l11 4 8 6 6 7 4 8 2 8v13l-4 13-7 10-8 6-10 4-13 1-12-3-9-6-8-9-5-12-1-5v-9l3-12 4-8 7-8 10-6zm2 17-6 3-7 8-3 10 1 9 4 8 7 6 6 2h7l8-3 7-7 3-9v-9l-3-8-5-6-8-4z" fill="#C90F1B"/>
<path transform="translate(993,1097)" d="m0 0h15l13 1 11 4 9 7 6 10 3 10v14l-4 13-6 8-7 6-8 3-5 1h-30l-3-3-1-5v-62l3-5zm11 17-1 1v42h16l8-4 4-5 2-6v-11l-3-8-7-6-5-2z" fill="#C80F1B"/>
<path transform="translate(1484,1096)" d="m0 0h17l11 4 9 7 4 7-2 5-4 4-6 1-10-8-5-2h-12l-8 5-4 5-3 10 1 10 5 8 5 4 5 2h11l8-4 6-5 7 1 5 5v6l-4 5-11 7-13 3h-8l-12-3-10-6-6-7-5-10-1-4v-21l4-10 6-8 9-7z" fill="#FEFEFE"/>
<path transform="translate(1077,1097)" d="m0 0 17 1 4 4v8l-4 4h-25v9l1 1 24 1 4 4v7l-4 5-4 1h-21v14l25 1 3 2 1 3v7l-2 4-2 1h-38l-4-4-1-11 1-58 4-3z" fill="#FEFEFE"/>
<path transform="translate(620,226)" d="m0 0h28l12 4 9 6 9 9 7 13 3 14-1 21-4 22-6 21-8 21-10 19-8 10-8 6-9 3h-15l-16-8-13-10-10-9-12-11-7-7-9-11-10-15-7-15-5-16-1-6v-8l3-14 6-12 7-9 14-9 16-4 33-4zm-1 5-38 4-16 3-10 5-10 9-6 9-4 12-1 10 2 14 5 14 8 15 12 16 11 12 9 9 8 7 15 12 10 6 6 2h14l8-3 8-7 10-16 8-18 9-27 4-20 2-16v-11l-3-13-6-11-10-10-10-5-7-2z" fill="#FEFEFE"/>
<path transform="translate(1408,226)" d="m0 0h13l18 6 38 15 16 7 8 6 6 9 3 7 1 5v9l-4 13-15 35-12 27-5 9-5 5-6 5-11 4h-14l-30-10-38-14-8-5-5-4-6-9-4-13v-9l3-12 18-43 10-23 8-10 9-6 8-3zm0 5-11 4-9 7-6 9-18 43-9 22-2 10 1 11 4 9 5 7 10 7 48 17 18 6h15l10-5 5-5 6-9 19-43 10-24 2-8v-7l-3-10-6-9-9-6-14-6-39-15-11-4-4-1z" fill="#FEFEFE"/>
<path transform="translate(1e3 235)" d="m0 0h21l16 4 15 8 13 11 10 13 7 14 4 15 1 5v21l-4 17-6 14-9 13-11 11-13 8-13 5-17 3h-8l-20-4-16-8-9-7-10-10-8-13-6-14-3-13-1-13 2-17 4-13 8-16 11-13 9-8 14-8 13-4zm0 5-12 3-16 8-9 7-7 7-9 14-6 15-2 9-1 15 2 15 5 15 6 11 7 9 9 9 13 8 9 4 16 3h10l16-3 14-6 11-8 8-8 7-10 6-12 4-13 1-6v-20l-3-14-5-13-8-12-9-10-11-8-13-6-12-3z" fill="#FEFEFE"/>
<path transform="translate(1616,1096)" d="m0 0h10l10 5 6 8-1 7-6 5-6-1-7-6-3-1v6l12 11 6 5 6 10 1 4v8l-4 9-4 5-8 4-10 1-9-3-8-7-3-4-1-6 4-6 9-1 7 8 5 1 4-4-3-7-10-9-8-7-4-8-1-8 4-11 7-6z" fill="#FEFEFE"/>
<path transform="translate(1389,1102)" d="m0 0h16l11 1 6 3 5 6 1 2v12l-4 7-5 4-4 1h-7l4 7 10 13 7 11h-8l-8-10-14-19-3-1-1 30h-6l-1-66zm11 12v12l1 1 12-1 3-3v-6l-2-2z" fill="#C80F1B"/>
<path transform="translate(838,1102)" d="m0 0 5 3 8 10 18 22 11 14 1-4v-44l1-1h5l1 2v65l-4-2-12-14-11-14-9-10-5-7-2-1v48h-7z" fill="#C90F1B"/>
<path transform="translate(927,1102)" d="m0 0h2l10 22 17 39 2 6h-7l-8-16-3-5h-25l-6 12-4 9h-7l1-5 12-27 13-29zm0 28-2 5 5 1-1-6z" fill="#C80F1B"/>
<path transform="translate(798,1102)" d="m0 0 3 3 18 40 8 19 1 5h-6l-4-7-7-14h-25l-8 16-3 5h-6l1-6 19-42 8-18zm0 29-2 5 5-1-1-4z" fill="#C90F1B"/>
<path transform="translate(1033,409)" d="m0 0h14l28 2 22 4 4 2-1 1h-6v-2h-11l-4-2-21-2h-34l-29 2-15 2-18 5-12 3-15 4-15 6-12 5-16 8-13 8-9 6h-3v2l-9 6h-2l-1 3-3 2h-3v2l-9 7-5 5-8 9h-2v3h-2l-2 4-9 11-2 2-2 1-2 5-8 9-7 10h-2v3h-2l-2 4-8 11-12 17-7 10-9 13-4 5-3 5-9 12-6 9-8 11-3 5-4 5-5 8h-2l-1 4-2 3h-2l-1 4-12 16-6 10h-2l-2 4-5 8-4 6h-2l-1 4-4 4-1 2-2-1 8-12 12-17 13-18 14-20 36-51 13-18 14-20 12-17 13-17 12-15 9-11 12-14 7-8 9-9 14-11 14-10 15-9 17-9 24-10 25-8 32-7 27-3z" fill="#CA101C"/>
<path transform="translate(547,1102)" d="m0 0h6l1 1v66l-4-2-11-12-8-10-9-11-10-12-1 2v44l-1 1h-6v-66l4 2 11 13 18 22 8 10 2 1z" fill="#C80F1B"/>
<path transform="translate(1442,1097)" d="m0 0 7 1 3 4v69l-4 3h-8l-4-3-1-5v-62l3-5z" fill="#FEFEFE"/>
<path transform="translate(1026,551)" d="m0 0h9l10 3 10 6 5 4 6 8 6 12 3 11 1 13-2 16-5 13-7 9-7 5-11 2-10-3-8-5v-2h-2l-8-12-5-14-2-8v-17l4-17 8-19zm1 5-6 12-5 14-2 11v16l3 12 7 14 9 9 10 4 8-1 8-5 4-5 5-10 2-7 1-8v-10l-2-12-5-12-8-11-9-7-11-4z" fill="#FEFEFE"/>
<path transform="translate(680,1096)" d="m0 0h15l11 4 8 6 6 7 4 8 2 9v11l-3 12-6 9-7 7-10 5-9 2h-8l-9-2-9-5-6-5-6-10-3-7-1-5v-11l4-13 6-10 10-8zm1 5-11 4-6 5-6 9-3 7-1 6v8l2 9 6 10 7 7 9 4 5 1h9l10-3 6-4 9-10 4-12v-11l-4-13-6-8-8-6-9-3z" fill="#FEFEFE"/>
<path transform="translate(1555,1096)" d="m0 0h15l11 4 8 6 6 7 4 8 2 8v13l-4 13-7 10-8 6-10 4-13 1-12-3-9-6-8-9-5-12-1-5v-9l3-12 4-8 7-8 10-6zm0 5-10 4-6 5-7 11-3 12 1 13 6 12 7 7 10 5 5 1h9l10-3 9-6 7-10 3-9v-13l-3-10-6-9-7-6-11-4z" fill="#FEFEFE"/>
<path transform="translate(993,1097)" d="m0 0h15l13 1 11 4 9 7 6 10 3 10v14l-4 13-6 8-7 6-8 3-5 1h-30l-3-3-1-5v-62l3-5zm-1 5-1 3v47l1 17h29l9-3 8-7 5-8 2-7v-13l-4-13-6-8-5-4-10-3-10-1z" fill="#FEFEFE"/>
<path transform="translate(1253,1102)" d="m0 0h35l1 1v6l-1 1h-29v19l29 1v7h-29v25h30v7h-37v-66z" fill="#C60F1B"/>
<path transform="translate(1484,1101)" d="m0 0h15l9 3 6 4 5 5-1 5-5-1-8-6-7-2h-11l-10 4-4 2-6 12-1 5v8l3 10 8 9 11 4h10l8-3 8-6 4 1 1 4-9 8-13 4h-10l-11-3-9-7-6-9-3-10v-12l3-10 6-9 7-6z" fill="#C90F1B"/>
<path transform="translate(1166,1102)" d="m0 0h35v8h-29l1 19 28 1v7h-29v25h29v7h-36v-66z" fill="#C80F1B"/>
<path transform="translate(1342,1102)" d="m0 0h36v8h-30l1 19 29 1v6l-1 1h-29v25h30v7h-36l-1-28v-38z" fill="#C40F1A"/>
<path transform="translate(569,1102)" d="m0 0h35l1 1v6l-1 1h-29v19l29 1 1 6-1 1h-29l1 24 28 1 1 2-1 5h-35l-1-20v-46z" fill="#C90F1B"/>
<path transform="translate(1419,269)" d="m0 0 5 1 41 18 3 2-1 6-14 29-9 20-2 3-4-1-20-9-26-12 1-5 11-22 11-23zm2 5-4 10-13 26-6 13 15 7 25 12 4-5 11-23 9-19v-3l-29-13z" fill="#FEFEFE"/>
<path transform="translate(458,1102)" d="m0 0h35v8l-29 1v18l29 1v7l-29 1v24h29v7h-36v-66z" fill="#C80F1B"/>
<path transform="translate(1057,1102)" d="m0 0h35l1 1v6l-1 1-28 1v17l1 1 28 1v7h-30l1 25h28l1 1v6h-36z" fill="#C90F1B"/>
<path transform="translate(1e3 281)" d="m0 0h17l10 5 9 8 5 10 1 4v15l-4 11-6 8-8 6-9 3h-13l-11-4-8-6-7-11-3-12 1-11 4-9 4-6 8-7 6-3zm4 4-9 3-8 6-6 8-2 6-1 10 2 9 5 8 7 7 9 4h13l10-4 5-4 6-9 2-5v-16l-6-12-8-7-11-4z" fill="#FEFEFE"/>
<path transform="translate(1616,1101)" d="m0 0h10l8 5 3 4-1 4-5 1-5-5-7-1-4 2-2 5 3 8 11 9 5 4 6 9 1 8-3 9-8 7-4 1h-7l-8-4-6-7-1-5 6-1 6 7 5 2 7-1 3-1 2-9-3-7-7-7-10-8-4-5-1-3v-11l4-6 3-3z" fill="#C90F1B"/>
<path transform="translate(391,1102)" d="m0 0h6l3 4 18 45 2-3 11-26 8-19 1-1h6l-1 6-19 46-6 14-3 1-18-44-8-20z" fill="#C90F1B"/>
<path transform="translate(613,1102)" d="m0 0h32l1 2-9 21-16 37h23l1 1v6h-34l1-6 20-45 3-8h-22z" fill="#C80F1B"/>
<path transform="translate(629,271)" d="m0 0h6l-1 10-12 59-4-2-32-48-5-7v-2l22-5zm-1 5-40 8 20 30 9 14 2 2 10-48 1-6z" fill="#FEFEFE"/>
<path transform="translate(1299,1102)" d="m0 0h32v8h-25v20h25v7h-25v32h-7z" fill="#C70F1B"/>
<path transform="translate(682,1108)" d="m0 0h11l8 3 7 6 5 10 1 4v10l-3 9-6 8-9 5-11 1-10-3-8-7-5-9-1-5v-8l3-10 6-8 6-4zm0 5-7 4-6 7-3 10 1 9 4 8 7 6 6 2h7l8-3 5-4 4-8 1-4v-9l-3-8-8-8-5-2z" fill="#FEFEFE"/>
<path transform="translate(1557,1108)" d="m0 0h11l8 3 7 6 5 9 1 4v11l-4 11-5 6-9 5-5 1h-7l-11-4-7-7-4-8-1-5v-8l4-11 4-6 7-5zm0 5-6 3-7 8-3 10 1 9 4 8 7 6 6 2h7l8-3 7-7 3-9v-9l-3-8-5-6-8-4z" fill="#FEFEFE"/>
<path transform="translate(998,1110)" d="m0 0h18l8 2 6 4 5 6 3 9v12l-4 10-8 7-7 2h-21zm6 4-1 1v42h16l8-4 4-5 2-6v-11l-3-8-7-6-5-2z" fill="#FEFEFE"/>
<path transform="translate(1176,649)" d="m0 0 1 4-9 21-7 12-1 3h-2l-2 5h-2v3h-2l-2 4-7 8-3 3h-2l-2 4-5 5h-2l-1 3-3 2h-3v2l-6 4-8 5-11 5-5 2-13 5-10 4-14 2-9 2-45-1-13-2-5-2-7-1-1-1-7-1-8-3-10-4-6-3v-2l-4-1-11-8-7-8-9-9-9-13-4-9 1-3 7 14 10 13 10 10 16 11 16 8 17 6 21 5 7 1h39l22-4 21-7 17-8 18-12 13-11 14-14 12-17 11-21z" fill="#CA101C"/>
<path transform="translate(1122,1102)" d="m0 0h33l1 1v6l-3 1h-10l-1 59h-6l-1-11v-42l-1-6h-11l-2-2z" fill="#CA101C"/>
<path transform="translate(734,1102)" d="m0 0h5l1 1v59h24v7h-30l-1-1v-65z" fill="#C90F1B"/>
<path transform="translate(1212,1102)" d="m0 0h6l1 60h23l1 1v6h-31z" fill="#C70F1B"/>
<path transform="translate(600,1131)" d="m0 0h4l1 5-1 1h-29l1 24 28 1 1 2-1 5h-35l-1-19 1-15 2 2 1-2 15-2h12z" fill="#C60F1B"/>
<path transform="translate(1441,1102)" d="m0 0h5l1 1v66h-6l-1-3v-63z" fill="#C80F1B"/>
<path transform="translate(987,509)" d="m0 0h7l-3 2-18 4-1 1-10 2-14 5-9 4-14 8-10 7h-3v2l-6 5-5 5-4 2v2l-5 5-8 9-4 6-9 14-5 10-5 13-1-4 8-19 6-11 10-14 10-11 1-2h2l1-3 11-9 14-10 14-8 20-8 18-5z" fill="#CA101C"/>
<path transform="translate(1057,1102)" d="m0 0h35l1 1v6l-1 1-28 1-1 17-2-3-2 1-1 6h-1z" fill="#C60F1B"/>
<path transform="translate(530,513)" d="m0 0 3 3 17 29 16 27 28 48 17 29 14 24 17 29 6 10-1 2-7-10-14-25-9-15-29-49-12-21-13-22-12-21-21-36z" fill="#CA101C"/>
<path transform="translate(887,739)" d="m0 0 7 6 4 3v2h2l4 4 13 9 9 5v2l4 1 17 9 6 2 22 7 9 3 9 2 18 2h39v1l-8 1h-33l-23-3-17-4-18-6-23-11-14-9-11-9-10-9-6-6z" fill="#CA101C"/>
<path transform="translate(1e3 240)" d="m0 0h21l12 3 16 8 10 8 8 9 7 11-1 3-9-14-13-13-6-3-9-5-9-3-13-2-17 1-12 4-5 1v2l-6 3-3 3-7 4-2 3h-2v3l-3 3-8 11-5 13-3 14v18l-2 3-1-13 2-17 5-15 6-11 8-10 7-7 11-7 11-5z" fill="#CA101C"/>
<path transform="translate(1026,451)" d="m0 0h18v1l-43 3-28 5-27 8-21 9-25 13-13 9-13 10-15 14-10 11v-3l6-8 11-11 11-9 19-13 11-7 23-11 20-8 26-7 14-3 17-2z" fill="#CA101C"/>
<path transform="translate(1061,1124)" d="m0 0 1 4 3 1 28 1v7h-30v25h-2l-2-15 1-2-1-11-1-2v-7z" fill="#A50C13"/>
<path transform="translate(1396,1110)" d="m0 0h19l5 4 1 2v9l-5 5-2 1h-18l-1-1v-19zm4 4v12l1 1 12-1 3-3v-6l-2-2z" fill="#FEFEFE"/>
<path transform="translate(1122,1102)" d="m0 0h33l1 1v6l-3 1h-10v2h-2v6h-4l-1 3-2-11h-11l-2-2z" fill="#C80F1B"/>
<path transform="translate(1092,663)" d="m0 0 2 1-7 9-9 9-14 8-9 3-7 1h-16l-12-3-16-8-12-11-1-2 4 2 6 5v2l4 1 6 3 13 5 13 3h14l12-4 10-5 7-7 8-7z" fill="#CA101C"/>
<path transform="translate(957,363)" d="m0 0 6 4v2l4 1 8 6 11 7 13 4 7 2h16l15-4 10-5 8-6 3-1v-2l5-2-6 7-10 7-14 6-16 3h-10l-16-3-16-8-9-7-9-9z" fill="#CA101C"/>
<path transform="translate(738,464)" d="m0 0 1 2-8 13-3 5h-2v3h-2l-2 5-9 13-6 10h-2v3h-2l-2 5-9 14-7 10-6 8-3 6-7 9-6 8-3 2-1-2 5-5 16-24 7-10 13-19 15-22 16-24z" fill="#CA101C"/>
<path transform="translate(510,1124)" d="m0 0h1v44l-1 1h-6v-44h1l1 13 3-1z" fill="#C90F1B"/>
<path transform="translate(798,1119)" d="m0 0 3 3 7 15v4h-19l1-6zm0 12-2 5 5-1-1-4z" fill="#FEFEFE"/>
<path transform="translate(1045,304)" d="m0 0 2 3v17l-4 12-6 9-4 3h-4v2l-7 2-19 1-12-5-8-9-4-8-3-10v-10l2-4v11l3 12 7 11 9 6 9 3h13l10-4 7-5 7-11 2-7z" fill="#CA101C"/>
<path transform="translate(1212,1102)" d="m0 0h6v41l-2-4h-3l-1 2z" fill="#C80F1B"/>
<path transform="translate(927,1119)" d="m0 0h2l8 18v4h-19l1-5 7-16zm0 11-2 5 5 1-1-6z" fill="#FEFEFE"/>
<path transform="translate(1368,356)" d="m0 0h6l7 4 7 2 15 4 4 2 5 2 6 3 9 3 5 1v2l9 2h12l6-1-2 2-3 1h-15l-30-10-38-14z" fill="#CA101C"/>
<path transform="translate(974,549)" d="m0 0h5l-3 9-6 19-2 12-1 4v12l-1 6h-1v-21l4-19 6-16 2-5-20 7-16 9-10 9-5 5-7 6 2-5 10-10 10-8 10-6 15-6z" fill="#CA101C"/>
<path transform="translate(600,1131)" d="m0 0h4l1 5-1 1-29 1-1 20-5-5-1-3 1-15 2 2 1-2 15-2h12z" fill="#AF0D15"/>
<path transform="translate(1074,620)" d="m0 0 2 2-5 15-3 5v3l-9 7-7 2-12 1-9-4-8-6-8-13-1-6 2 2 6 11 2 4h2l4 4 9 4 7 1 9-2 8-6 6-9z" fill="#CA101C"/>
<path transform="translate(1048,516)" d="m0 0 9 2 12 5 11 8 10 10 7 10 9 19 2 7-1 4-7-19-8-14-9-11-6-5-7-4-6-4-11-4z" fill="#CA101C"/>
<path transform="translate(694,601)" d="m0 0v3l-6 8-9 7-13 4h-10l-13-4-10-8-2-4 5 2 7 5 6 3 12 3h7l11-3v-2l9-7h2l2-5z" fill="#CA101C"/>
<path transform="translate(587,367)" d="m0 0 4 1 3 1v2l5 2 11 8 9 5 5 1 14 1-4 2h-14l-9-4-11-7-13-11z" fill="#CA101C"/>
<path transform="translate(1446,1119)" d="m0 0h1v50h-6l-1-3v-13h2l1-4 2 6v-35z" fill="#CA101C"/>
<path transform="translate(1444,1120)" d="m0 0 2 1v36l-4-4h-1v-20l1-1z" fill="#A30C13"/>
<path transform="translate(1394,1142)" d="m0 0h1v27h-6v-21l2-2 3 1z" fill="#CA101C"/>
<path transform="translate(1042,455)" d="m0 0v3l-2 3h-2v2l-7 5-4 5-3 3h-2v2l-4 4-6 8-7 8-3 5-4 4-2-1 10-14 9-10 11-12 9-9z" fill="#C80F1B"/>
<path transform="translate(1351,1131)" d="m0 0h26v5h-29l3-4z" fill="#A30C13"/>
<path transform="translate(1440,239)" d="m0 0 5 1 39 15 11 6 6 7 1 4-4-4-4-5-12-6-5-1v-2l-8-1-8-4-7-2v-2l-5-1-9-4z" fill="#CA101C"/>
<path transform="translate(1418,268)" d="m0 0 9 1 11 4 5 3 13 5 13 8 1 2-2 3-1-4-40-18-5-2h-3l-2 2z" fill="#CA101C"/>
<path transform="translate(468,1131)" d="m0 0h24v5h-28l1-2 3-2z" fill="#A30C13"/>
<path transform="translate(1266,1131)" d="m0 0h22v5h-28l4-3h2z" fill="#A30C13"/>
<path transform="translate(1198,1130)" d="m0 0h2v6h-28l2-2 6-1v-2z" fill="#A30C13"/>
<path transform="translate(1364,1083)" d="m0 0h7l-1 4-9 10-7 1 2-5 6-9z" fill="#CA101C"/>
<path transform="translate(623,761)" d="m0 0 7 6 11 6 10 3 15 1-4 2h-14l-11-4-8-6-6-6z" fill="#CA101C"/>
<path transform="translate(1171,469)" d="m0 0 7 6 13 17 10 17 6 12-1 3-12-23-11-16-12-14z" fill="#CA101C"/>
<path transform="translate(1065,1130)" d="m0 0h28v7h-30v-1h29v-5h-5v2l-3 1h-7l-2-1v-2h-10z" fill="#CA101C"/>
<path transform="translate(1167,399)" d="m0 0h10v1l-23 3-22 6-18 7-5 1 3-3 28-10 20-4z" fill="#CA101C"/>
<path transform="translate(569,1135)" d="m0 0 2 2 1-2 3 1-1 22-5-5-1-3z" fill="#A30C13"/>
<path transform="translate(1025,550)" d="m0 0h12l9 2 11 6 3 6-4-2-9-6-7-3-5-1h-11l-5 10-1-3 3-6h2v-2z" fill="#CA101C"/>
<path transform="translate(552,245)" d="m0 0 2 1-7 8-3 4h-2l-3 9-2 7v23l-2-4-1-12 2-12 5-12 9-10z" fill="#CA101C"/>
<path transform="translate(509,1120)" d="m0 0h1v17l-4 2-1-1v-13l2-4z" fill="#A30C13"/>
<path transform="translate(591,490)" d="m0 0 2 1-8 9-3 5-1 7v11l4 10-1 2-5-10-1-5 1-13 5-10 2-3h2v-2z" fill="#CA101C"/>
<path transform="translate(569,1102)" d="m0 0h35l-1 4-1-1h-33z" fill="#B50D17"/>
<path transform="translate(1310,1131)" d="m0 0h7l1 2h8v-2h4l1 4-1 1h-23l3-2z" fill="#A30C13"/>
<path transform="translate(1008,279)" d="m0 0h12l9 3 8 6 2 5-8-6-10-5-17-1z" fill="#CA101C"/>
<path transform="translate(1100,468)" d="m0 0 9 2 11 7v2l5 2 2 4-4-2-17-11-8-2z" fill="#CA101C"/>
<path transform="translate(1392,326)" d="m0 0 6 2 28 13-3 1-7-2v-2l-5-1-8-4-7-2-4-4z" fill="#CA101C"/>
<path transform="translate(1408,231)" d="m0 0h12l4 2h-13l-8 2-6 2v2l-5 1v2l-3 3h-2v3h-2l2-5 8-7 9-4z" fill="#CA101C"/>
<path transform="translate(1016,482)" d="m0 0v3l-7 8-7 10-4 4-2-1 10-14z" fill="#CA101C"/>
<path transform="translate(1317,1130)" d="m0 0h14l-1 4v-3l-3 2-1 1h-8l-2-2z" fill="#CA101C"/>
<path transform="translate(1260,1163)" d="m0 0h22v1l-13 2-5 1-2-1v-2z" fill="#A30C13"/>
<path transform="translate(1139,1109)" d="m0 0 2 1v8h-4l-1 3v-11z" fill="#A30C13"/>
<path transform="translate(642,552)" d="m0 0 4 4 11 17-1 2-4-5-10-15z" fill="#CA101C"/>
<path transform="translate(465,1163)" d="m0 0h20v1l-12 2-5 1z" fill="#A30C13"/>
<path transform="translate(1172,1163)" d="m0 0h23v1l-19 2v-2z" fill="#A30C13"/>
<path transform="translate(1219,1163)" d="m0 0h17l-4 2-1 1h-7l-5-2z" fill="#A30C13"/>
<path transform="translate(741,1163)" d="m0 0h11l-3 4h-6z" fill="#A30C13"/>
<path transform="translate(1064,1163)" d="m0 0h19v1l-13 2h-3z" fill="#A30C13"/>
<path transform="translate(1391,1141)" d="m0 0h3v6l-5 1v-5h2z" fill="#A60C13"/>
</svg>
